<mxfile host="app.diagrams.net" agent="Mozilla/5.0 (Windows NT 10.0; Win64; x64) AppleWebKit/537.36 (KHTML, like Gecko) Chrome/131.0.0.0 Safari/537.36" version="25.0.1">
  <diagram id="C5RBs43oDa-KdzZeNtuy" name="Page-1">
    <mxGraphModel dx="875" dy="442" grid="1" gridSize="10" guides="1" tooltips="1" connect="1" arrows="1" fold="1" page="1" pageScale="1" pageWidth="827" pageHeight="1169" math="0" shadow="0">
      <root>
        <mxCell id="WIyWlLk6GJQsqaUBKTNV-0" />
        <mxCell id="WIyWlLk6GJQsqaUBKTNV-1" parent="WIyWlLk6GJQsqaUBKTNV-0" />
        <mxCell id="_pkG8tOmTEk3xvQ4hSWK-2" value="" style="edgeStyle=orthogonalEdgeStyle;rounded=0;orthogonalLoop=1;jettySize=auto;html=1;" edge="1" parent="WIyWlLk6GJQsqaUBKTNV-1" source="_pkG8tOmTEk3xvQ4hSWK-0" target="_pkG8tOmTEk3xvQ4hSWK-1">
          <mxGeometry relative="1" as="geometry" />
        </mxCell>
        <mxCell id="_pkG8tOmTEk3xvQ4hSWK-0" value="Start" style="ellipse;whiteSpace=wrap;html=1;" vertex="1" parent="WIyWlLk6GJQsqaUBKTNV-1">
          <mxGeometry x="210" y="90" width="100" height="60" as="geometry" />
        </mxCell>
        <mxCell id="_pkG8tOmTEk3xvQ4hSWK-4" value="" style="edgeStyle=orthogonalEdgeStyle;rounded=0;orthogonalLoop=1;jettySize=auto;html=1;" edge="1" parent="WIyWlLk6GJQsqaUBKTNV-1" source="_pkG8tOmTEk3xvQ4hSWK-1" target="_pkG8tOmTEk3xvQ4hSWK-3">
          <mxGeometry relative="1" as="geometry" />
        </mxCell>
        <mxCell id="_pkG8tOmTEk3xvQ4hSWK-1" value="nhập 3 số a, b, c" style="whiteSpace=wrap;html=1;" vertex="1" parent="WIyWlLk6GJQsqaUBKTNV-1">
          <mxGeometry x="200" y="200" width="120" height="60" as="geometry" />
        </mxCell>
        <mxCell id="_pkG8tOmTEk3xvQ4hSWK-28" value="" style="edgeStyle=orthogonalEdgeStyle;rounded=0;orthogonalLoop=1;jettySize=auto;html=1;" edge="1" parent="WIyWlLk6GJQsqaUBKTNV-1" source="_pkG8tOmTEk3xvQ4hSWK-3">
          <mxGeometry relative="1" as="geometry">
            <mxPoint x="260" y="420" as="targetPoint" />
          </mxGeometry>
        </mxCell>
        <mxCell id="_pkG8tOmTEk3xvQ4hSWK-3" value="max = a" style="whiteSpace=wrap;html=1;" vertex="1" parent="WIyWlLk6GJQsqaUBKTNV-1">
          <mxGeometry x="200" y="320" width="120" height="60" as="geometry" />
        </mxCell>
        <mxCell id="_pkG8tOmTEk3xvQ4hSWK-44" value="" style="edgeStyle=orthogonalEdgeStyle;rounded=0;orthogonalLoop=1;jettySize=auto;html=1;" edge="1" parent="WIyWlLk6GJQsqaUBKTNV-1" source="_pkG8tOmTEk3xvQ4hSWK-5" target="_pkG8tOmTEk3xvQ4hSWK-10">
          <mxGeometry relative="1" as="geometry" />
        </mxCell>
        <mxCell id="_pkG8tOmTEk3xvQ4hSWK-51" value="" style="edgeStyle=orthogonalEdgeStyle;rounded=0;orthogonalLoop=1;jettySize=auto;html=1;" edge="1" parent="WIyWlLk6GJQsqaUBKTNV-1" source="_pkG8tOmTEk3xvQ4hSWK-5" target="_pkG8tOmTEk3xvQ4hSWK-11">
          <mxGeometry relative="1" as="geometry" />
        </mxCell>
        <mxCell id="_pkG8tOmTEk3xvQ4hSWK-5" value="max &amp;lt; b" style="rhombus;whiteSpace=wrap;html=1;" vertex="1" parent="WIyWlLk6GJQsqaUBKTNV-1">
          <mxGeometry x="190" y="520" width="140" height="80" as="geometry" />
        </mxCell>
        <mxCell id="_pkG8tOmTEk3xvQ4hSWK-10" value="max = b" style="rounded=0;whiteSpace=wrap;html=1;" vertex="1" parent="WIyWlLk6GJQsqaUBKTNV-1">
          <mxGeometry x="400" y="530" width="120" height="60" as="geometry" />
        </mxCell>
        <mxCell id="_pkG8tOmTEk3xvQ4hSWK-14" value="" style="edgeStyle=orthogonalEdgeStyle;rounded=0;orthogonalLoop=1;jettySize=auto;html=1;" edge="1" parent="WIyWlLk6GJQsqaUBKTNV-1" source="_pkG8tOmTEk3xvQ4hSWK-11" target="_pkG8tOmTEk3xvQ4hSWK-13">
          <mxGeometry relative="1" as="geometry" />
        </mxCell>
        <mxCell id="_pkG8tOmTEk3xvQ4hSWK-53" value="" style="edgeStyle=orthogonalEdgeStyle;rounded=0;orthogonalLoop=1;jettySize=auto;html=1;" edge="1" parent="WIyWlLk6GJQsqaUBKTNV-1" source="_pkG8tOmTEk3xvQ4hSWK-11" target="_pkG8tOmTEk3xvQ4hSWK-52">
          <mxGeometry relative="1" as="geometry" />
        </mxCell>
        <mxCell id="_pkG8tOmTEk3xvQ4hSWK-11" value="max &amp;lt; c" style="rhombus;whiteSpace=wrap;html=1;rounded=0;" vertex="1" parent="WIyWlLk6GJQsqaUBKTNV-1">
          <mxGeometry x="190" y="660" width="140" height="60" as="geometry" />
        </mxCell>
        <mxCell id="_pkG8tOmTEk3xvQ4hSWK-41" value="" style="edgeStyle=orthogonalEdgeStyle;rounded=0;orthogonalLoop=1;jettySize=auto;html=1;" edge="1" parent="WIyWlLk6GJQsqaUBKTNV-1" source="_pkG8tOmTEk3xvQ4hSWK-13" target="_pkG8tOmTEk3xvQ4hSWK-40">
          <mxGeometry relative="1" as="geometry" />
        </mxCell>
        <mxCell id="_pkG8tOmTEk3xvQ4hSWK-13" value="max = a" style="whiteSpace=wrap;html=1;rounded=0;" vertex="1" parent="WIyWlLk6GJQsqaUBKTNV-1">
          <mxGeometry x="200" y="790" width="120" height="60" as="geometry" />
        </mxCell>
        <mxCell id="_pkG8tOmTEk3xvQ4hSWK-15" value="False" style="text;html=1;align=center;verticalAlign=middle;resizable=0;points=[];autosize=1;strokeColor=none;fillColor=none;" vertex="1" parent="WIyWlLk6GJQsqaUBKTNV-1">
          <mxGeometry x="250" y="740" width="50" height="30" as="geometry" />
        </mxCell>
        <mxCell id="_pkG8tOmTEk3xvQ4hSWK-17" value="" style="endArrow=none;html=1;rounded=0;" edge="1" parent="WIyWlLk6GJQsqaUBKTNV-1">
          <mxGeometry width="50" height="50" relative="1" as="geometry">
            <mxPoint x="120" y="559.58" as="sourcePoint" />
            <mxPoint x="190" y="559.58" as="targetPoint" />
          </mxGeometry>
        </mxCell>
        <mxCell id="_pkG8tOmTEk3xvQ4hSWK-18" value="" style="endArrow=none;html=1;rounded=0;" edge="1" parent="WIyWlLk6GJQsqaUBKTNV-1">
          <mxGeometry width="50" height="50" relative="1" as="geometry">
            <mxPoint x="120" y="560" as="sourcePoint" />
            <mxPoint x="120" y="350" as="targetPoint" />
          </mxGeometry>
        </mxCell>
        <mxCell id="_pkG8tOmTEk3xvQ4hSWK-19" value="" style="endArrow=classic;html=1;rounded=0;entryX=0;entryY=0.5;entryDx=0;entryDy=0;" edge="1" parent="WIyWlLk6GJQsqaUBKTNV-1" target="_pkG8tOmTEk3xvQ4hSWK-3">
          <mxGeometry width="50" height="50" relative="1" as="geometry">
            <mxPoint x="120" y="350" as="sourcePoint" />
            <mxPoint x="170" y="300" as="targetPoint" />
          </mxGeometry>
        </mxCell>
        <mxCell id="_pkG8tOmTEk3xvQ4hSWK-20" value="False" style="text;html=1;align=center;verticalAlign=middle;resizable=0;points=[];autosize=1;strokeColor=none;fillColor=none;" vertex="1" parent="WIyWlLk6GJQsqaUBKTNV-1">
          <mxGeometry x="130" y="540" width="50" height="30" as="geometry" />
        </mxCell>
        <mxCell id="_pkG8tOmTEk3xvQ4hSWK-32" value="" style="edgeStyle=orthogonalEdgeStyle;rounded=0;orthogonalLoop=1;jettySize=auto;html=1;" edge="1" parent="WIyWlLk6GJQsqaUBKTNV-1" source="_pkG8tOmTEk3xvQ4hSWK-31" target="_pkG8tOmTEk3xvQ4hSWK-5">
          <mxGeometry relative="1" as="geometry" />
        </mxCell>
        <mxCell id="_pkG8tOmTEk3xvQ4hSWK-35" value="" style="edgeStyle=orthogonalEdgeStyle;rounded=0;orthogonalLoop=1;jettySize=auto;html=1;" edge="1" parent="WIyWlLk6GJQsqaUBKTNV-1" source="_pkG8tOmTEk3xvQ4hSWK-31" target="_pkG8tOmTEk3xvQ4hSWK-34">
          <mxGeometry relative="1" as="geometry" />
        </mxCell>
        <mxCell id="_pkG8tOmTEk3xvQ4hSWK-31" value="a=b=c" style="rhombus;whiteSpace=wrap;html=1;" vertex="1" parent="WIyWlLk6GJQsqaUBKTNV-1">
          <mxGeometry x="200" y="420" width="120" height="60" as="geometry" />
        </mxCell>
        <mxCell id="_pkG8tOmTEk3xvQ4hSWK-33" value="False" style="text;html=1;align=center;verticalAlign=middle;resizable=0;points=[];autosize=1;strokeColor=none;fillColor=none;" vertex="1" parent="WIyWlLk6GJQsqaUBKTNV-1">
          <mxGeometry x="250" y="488" width="50" height="30" as="geometry" />
        </mxCell>
        <mxCell id="_pkG8tOmTEk3xvQ4hSWK-39" value="" style="edgeStyle=orthogonalEdgeStyle;rounded=0;orthogonalLoop=1;jettySize=auto;html=1;" edge="1" parent="WIyWlLk6GJQsqaUBKTNV-1" source="_pkG8tOmTEk3xvQ4hSWK-34" target="_pkG8tOmTEk3xvQ4hSWK-38">
          <mxGeometry relative="1" as="geometry" />
        </mxCell>
        <mxCell id="_pkG8tOmTEk3xvQ4hSWK-34" value="Ba số a, b, c bằng nhau" style="shape=parallelogram;perimeter=parallelogramPerimeter;whiteSpace=wrap;html=1;fixedSize=1;" vertex="1" parent="WIyWlLk6GJQsqaUBKTNV-1">
          <mxGeometry x="380" y="420" width="170" height="60" as="geometry" />
        </mxCell>
        <mxCell id="_pkG8tOmTEk3xvQ4hSWK-36" value="True" style="text;html=1;align=center;verticalAlign=middle;resizable=0;points=[];autosize=1;strokeColor=none;fillColor=none;" vertex="1" parent="WIyWlLk6GJQsqaUBKTNV-1">
          <mxGeometry x="320" y="430" width="50" height="30" as="geometry" />
        </mxCell>
        <mxCell id="_pkG8tOmTEk3xvQ4hSWK-38" value="End" style="ellipse;whiteSpace=wrap;html=1;" vertex="1" parent="WIyWlLk6GJQsqaUBKTNV-1">
          <mxGeometry x="600" y="430" width="80" height="40" as="geometry" />
        </mxCell>
        <mxCell id="_pkG8tOmTEk3xvQ4hSWK-43" value="" style="edgeStyle=orthogonalEdgeStyle;rounded=0;orthogonalLoop=1;jettySize=auto;html=1;" edge="1" parent="WIyWlLk6GJQsqaUBKTNV-1" source="_pkG8tOmTEk3xvQ4hSWK-40" target="_pkG8tOmTEk3xvQ4hSWK-42">
          <mxGeometry relative="1" as="geometry" />
        </mxCell>
        <mxCell id="_pkG8tOmTEk3xvQ4hSWK-40" value="Số lớn nhất trong ba số là: max" style="shape=parallelogram;perimeter=parallelogramPerimeter;whiteSpace=wrap;html=1;fixedSize=1;rounded=0;" vertex="1" parent="WIyWlLk6GJQsqaUBKTNV-1">
          <mxGeometry x="170" y="910" width="180" height="60" as="geometry" />
        </mxCell>
        <mxCell id="_pkG8tOmTEk3xvQ4hSWK-42" value="End" style="ellipse;whiteSpace=wrap;html=1;rounded=0;" vertex="1" parent="WIyWlLk6GJQsqaUBKTNV-1">
          <mxGeometry x="220" y="1020" width="80" height="50" as="geometry" />
        </mxCell>
        <mxCell id="_pkG8tOmTEk3xvQ4hSWK-45" value="True" style="text;html=1;align=center;verticalAlign=middle;resizable=0;points=[];autosize=1;strokeColor=none;fillColor=none;" vertex="1" parent="WIyWlLk6GJQsqaUBKTNV-1">
          <mxGeometry x="330" y="530" width="50" height="30" as="geometry" />
        </mxCell>
        <mxCell id="_pkG8tOmTEk3xvQ4hSWK-52" value="max = c" style="whiteSpace=wrap;html=1;rounded=0;" vertex="1" parent="WIyWlLk6GJQsqaUBKTNV-1">
          <mxGeometry x="420" y="660" width="120" height="60" as="geometry" />
        </mxCell>
        <mxCell id="_pkG8tOmTEk3xvQ4hSWK-54" value="True" style="text;html=1;align=center;verticalAlign=middle;resizable=0;points=[];autosize=1;strokeColor=none;fillColor=none;" vertex="1" parent="WIyWlLk6GJQsqaUBKTNV-1">
          <mxGeometry x="350" y="670" width="50" height="30" as="geometry" />
        </mxCell>
      </root>
    </mxGraphModel>
  </diagram>
</mxfile>
